<svg width="18" height="22" viewBox="0 0 18 22" fill="none" xmlns="http://www.w3.org/2000/svg">
<path d="M9 4.40044V0L3.37564 5.50121L9 10.9998V6.59934C10.7903 6.59934 12.5073 7.29463 13.7732 8.53224C15.0391 9.76986 15.7503 11.4484 15.7503 13.1987C15.7503 14.9489 15.0391 16.6275 13.7732 17.8651C12.5073 19.1027 10.7903 19.798 9 19.798C8.11082 19.8076 7.22866 19.6434 6.40526 19.3151C5.58186 18.9868 4.83383 18.5011 4.20505 17.8864C3.57627 17.2717 3.07941 16.5404 2.74363 15.7354C2.40786 14.9304 2.23992 14.068 2.24968 13.1987H0.000477635C-0.0117958 14.3575 0.212582 15.5071 0.660471 16.5802C1.10836 17.6532 1.77075 18.628 2.60886 19.4476C3.44696 20.2673 4.44392 20.9151 5.54136 21.3533C6.63879 21.7915 7.81462 22.0112 9 21.9996C10.1854 22.0112 11.3612 21.7915 12.4586 21.3533C13.5561 20.9151 14.553 20.2673 15.3911 19.4476C16.2292 18.628 16.8916 17.6532 17.3395 16.5802C17.7874 15.5071 18.0118 14.3575 17.9995 13.1987C18.0114 12.04 17.7868 10.8907 17.3387 9.81801C16.8907 8.7453 16.2282 7.77075 15.3902 6.95143C14.5521 6.13211 13.5553 5.48447 12.458 5.04644C11.3608 4.60842 10.1851 4.38879 9 4.40044Z" fill="black"/>
</svg>
